<?xml version="1.0" encoding="UTF-8" standalone="no"?>
<!DOCTYPE svg PUBLIC "-//W3C//DTD SVG 1.1//EN"
 "http://www.w3.org/Graphics/SVG/1.1/DTD/svg11.dtd">
<!-- Generated by graphviz version 2.40.1 (20161225.0304)
 -->
<!-- Title: data_dep Pages: 1 -->
<svg width="338pt" height="116pt"
 viewBox="0.00 0.00 337.59 116.00" xmlns="http://www.w3.org/2000/svg" xmlns:xlink="http://www.w3.org/1999/xlink">
<g id="graph0" class="graph" transform="scale(1 1) rotate(0) translate(4 112)">
<title>data_dep</title>
<polygon fill="#ffffff" stroke="transparent" points="-4,4 -4,-112 333.594,-112 333.594,4 -4,4"/>
<!-- less1 -->
<g id="node1" class="node">
<title>less1</title>
<polygon fill="none" stroke="#000000" points="98,-108 44,-108 44,-72 98,-72 98,-108"/>
<text text-anchor="middle" x="71" y="-85.8" font-family="Times,serif" font-size="14.00" fill="#000000">&gt;</text>
</g>
<!-- i1 -->
<g id="node2" class="node">
<title>i1</title>
<ellipse fill="none" stroke="#000000" cx="27" cy="-18" rx="27" ry="18"/>
<text text-anchor="middle" x="27" y="-13.8" font-family="Times,serif" font-size="14.00" fill="#000000">i</text>
</g>
<!-- less1&#45;&gt;i1 -->
<g id="edge1" class="edge">
<title>less1&#45;&gt;i1</title>
<path fill="none" stroke="#000000" d="M59.8969,-71.8314C54.6494,-63.2444 48.2952,-52.8466 42.5759,-43.4878"/>
<polygon fill="#000000" stroke="#000000" points="45.5449,-41.634 37.3438,-34.9263 39.5719,-45.2842 45.5449,-41.634"/>
</g>
<!-- arr_size1 -->
<g id="node3" class="node">
<title>arr_size1</title>
<ellipse fill="none" stroke="#000000" cx="114" cy="-18" rx="41.6882" ry="18"/>
<text text-anchor="middle" x="114" y="-13.8" font-family="Times,serif" font-size="14.00" fill="#000000">arr_size</text>
</g>
<!-- less1&#45;&gt;arr_size1 -->
<g id="edge2" class="edge">
<title>less1&#45;&gt;arr_size1</title>
<path fill="none" stroke="#000000" d="M81.8507,-71.8314C86.7769,-63.5829 92.7009,-53.6635 98.1144,-44.5992"/>
<polygon fill="#000000" stroke="#000000" points="101.1792,-46.2935 103.3017,-35.9134 95.1693,-42.7042 101.1792,-46.2935"/>
</g>
<!-- less2 -->
<g id="node4" class="node">
<title>less2</title>
<polygon fill="none" stroke="#000000" points="271,-108 217,-108 217,-72 271,-72 271,-108"/>
<text text-anchor="middle" x="244" y="-85.8" font-family="Times,serif" font-size="14.00" fill="#000000">&gt;</text>
</g>
<!-- i2 -->
<g id="node5" class="node">
<title>i2</title>
<ellipse fill="none" stroke="#000000" cx="201" cy="-18" rx="27" ry="18"/>
<text text-anchor="middle" x="201" y="-13.8" font-family="Times,serif" font-size="14.00" fill="#000000">i</text>
</g>
<!-- less2&#45;&gt;i2 -->
<g id="edge3" class="edge">
<title>less2&#45;&gt;i2</title>
<path fill="none" stroke="#000000" d="M233.1493,-71.8314C228.0738,-63.3329 221.9391,-53.0608 216.3949,-43.7776"/>
<polygon fill="#000000" stroke="#000000" points="219.2411,-41.7171 211.1088,-34.9263 213.2313,-45.3063 219.2411,-41.7171"/>
</g>
<!-- arr_size2 -->
<g id="node6" class="node">
<title>arr_size2</title>
<ellipse fill="none" stroke="#000000" cx="288" cy="-18" rx="41.6882" ry="18"/>
<text text-anchor="middle" x="288" y="-13.8" font-family="Times,serif" font-size="14.00" fill="#000000">arr_size</text>
</g>
<!-- less2&#45;&gt;arr_size2 -->
<g id="edge4" class="edge">
<title>less2&#45;&gt;arr_size2</title>
<path fill="none" stroke="#000000" d="M255.1031,-71.8314C260.2202,-63.4579 266.3895,-53.3626 271.9964,-44.1878"/>
<polygon fill="#000000" stroke="#000000" points="275.1278,-45.7756 277.3558,-35.4177 269.1548,-42.1255 275.1278,-45.7756"/>
</g>
</g>
</svg>
