<?xml version="1.0" encoding="UTF-8" standalone="no"?>
<!DOCTYPE svg PUBLIC "-//W3C//DTD SVG 1.1//EN"
 "http://www.w3.org/Graphics/SVG/1.1/DTD/svg11.dtd">
<!-- Generated by graphviz version 2.40.1 (20161225.0304)
 -->
<!-- Title: L0 Pages: 1 -->
<svg width="338pt" height="188pt"
 viewBox="0.00 0.00 337.59 188.00" xmlns="http://www.w3.org/2000/svg" xmlns:xlink="http://www.w3.org/1999/xlink">
<g id="graph0" class="graph" transform="scale(1 1) rotate(0) translate(4 184)">
<title>L0</title>
<polygon fill="#ffffff" stroke="transparent" points="-4,4 -4,-184 333.594,-184 333.594,4 -4,4"/>
<!-- less1 -->
<g id="node1" class="node">
<title>less1</title>
<polygon fill="none" stroke="#000000" points="98,-180 44,-180 44,-144 98,-144 98,-180"/>
<text text-anchor="middle" x="71" y="-157.8" font-family="Times,serif" font-size="14.00" fill="#000000">&gt;</text>
</g>
<!-- i1 -->
<g id="node2" class="node">
<title>i1</title>
<ellipse fill="none" stroke="#000000" cx="27" cy="-90" rx="27" ry="18"/>
<text text-anchor="middle" x="27" y="-85.8" font-family="Times,serif" font-size="14.00" fill="#000000">i</text>
</g>
<!-- less1&#45;&gt;i1 -->
<g id="edge1" class="edge">
<title>less1&#45;&gt;i1</title>
<path fill="none" stroke="#000000" d="M59.8969,-143.8314C54.6494,-135.2444 48.2952,-124.8466 42.5759,-115.4878"/>
<polygon fill="#000000" stroke="#000000" points="45.5449,-113.634 37.3438,-106.9263 39.5719,-117.2842 45.5449,-113.634"/>
</g>
<!-- arr_size1 -->
<g id="node3" class="node">
<title>arr_size1</title>
<ellipse fill="none" stroke="#000000" cx="114" cy="-90" rx="41.6882" ry="18"/>
<text text-anchor="middle" x="114" y="-85.8" font-family="Times,serif" font-size="14.00" fill="#000000">arr_size</text>
</g>
<!-- less1&#45;&gt;arr_size1 -->
<g id="edge2" class="edge">
<title>less1&#45;&gt;arr_size1</title>
<path fill="none" stroke="#000000" d="M81.8507,-143.8314C86.7769,-135.5829 92.7009,-125.6635 98.1144,-116.5992"/>
<polygon fill="#000000" stroke="#000000" points="101.1792,-118.2935 103.3017,-107.9134 95.1693,-114.7042 101.1792,-118.2935"/>
</g>
<!-- less2 -->
<g id="node4" class="node">
<title>less2</title>
<polygon fill="none" stroke="#000000" points="271,-180 217,-180 217,-144 271,-144 271,-180"/>
<text text-anchor="middle" x="244" y="-157.8" font-family="Times,serif" font-size="14.00" fill="#000000">&gt;</text>
</g>
<!-- add -->
<g id="node6" class="node">
<title>add</title>
<polygon fill="none" stroke="#000000" points="228,-108 174,-108 174,-72 228,-72 228,-108"/>
<text text-anchor="middle" x="201" y="-85.8" font-family="Times,serif" font-size="14.00" fill="#000000">+</text>
</g>
<!-- less2&#45;&gt;add -->
<g id="edge3" class="edge">
<title>less2&#45;&gt;add</title>
<path fill="none" stroke="#000000" d="M233.1493,-143.8314C228.2977,-135.7079 222.4783,-125.9637 217.132,-117.0118"/>
<polygon fill="#000000" stroke="#000000" points="220.1292,-115.2041 211.9968,-108.4133 214.1194,-118.7933 220.1292,-115.2041"/>
</g>
<!-- arr_size2 -->
<g id="node8" class="node">
<title>arr_size2</title>
<ellipse fill="none" stroke="#000000" cx="288" cy="-90" rx="41.6882" ry="18"/>
<text text-anchor="middle" x="288" y="-85.8" font-family="Times,serif" font-size="14.00" fill="#000000">arr_size</text>
</g>
<!-- less2&#45;&gt;arr_size2 -->
<g id="edge6" class="edge">
<title>less2&#45;&gt;arr_size2</title>
<path fill="none" stroke="#000000" d="M255.1031,-143.8314C260.2202,-135.4579 266.3895,-125.3626 271.9964,-116.1878"/>
<polygon fill="#000000" stroke="#000000" points="275.1278,-117.7756 277.3558,-107.4177 269.1548,-114.1255 275.1278,-117.7756"/>
</g>
<!-- i2 -->
<g id="node5" class="node">
<title>i2</title>
<ellipse fill="none" stroke="#000000" cx="165" cy="-18" rx="27" ry="18"/>
<text text-anchor="middle" x="165" y="-13.8" font-family="Times,serif" font-size="14.00" fill="#000000">i</text>
</g>
<!-- add&#45;&gt;i2 -->
<g id="edge4" class="edge">
<title>add&#45;&gt;i2</title>
<path fill="none" stroke="#000000" d="M191.9157,-71.8314C187.7726,-63.5451 182.7863,-53.5727 178.2374,-44.4748"/>
<polygon fill="#000000" stroke="#000000" points="181.3115,-42.7967 173.7089,-35.4177 175.0505,-45.9273 181.3115,-42.7967"/>
</g>
<!-- const -->
<g id="node7" class="node">
<title>const</title>
<ellipse fill="none" stroke="#000000" cx="237" cy="-18" rx="27" ry="18"/>
<text text-anchor="middle" x="237" y="-13.8" font-family="Times,serif" font-size="14.00" fill="#000000">4</text>
</g>
<!-- add&#45;&gt;const -->
<g id="edge5" class="edge">
<title>add&#45;&gt;const</title>
<path fill="none" stroke="#000000" d="M210.0843,-71.8314C214.2274,-63.5451 219.2137,-53.5727 223.7626,-44.4748"/>
<polygon fill="#000000" stroke="#000000" points="226.9495,-45.9273 228.2911,-35.4177 220.6885,-42.7967 226.9495,-45.9273"/>
</g>
</g>
</svg>
