<?xml version="1.0" encoding="UTF-8" standalone="no"?>
<!DOCTYPE svg PUBLIC "-//W3C//DTD SVG 1.1//EN"
 "http://www.w3.org/Graphics/SVG/1.1/DTD/svg11.dtd">
<!-- Generated by graphviz version 2.40.1 (20161225.0304)
 -->
<!-- Title: data_dep Pages: 1 -->
<svg width="278pt" height="116pt"
 viewBox="0.00 0.00 278.00 116.00" xmlns="http://www.w3.org/2000/svg" xmlns:xlink="http://www.w3.org/1999/xlink">
<g id="graph0" class="graph" transform="scale(1 1) rotate(0) translate(4 112)">
<title>data_dep</title>
<polygon fill="#ffffff" stroke="transparent" points="-4,4 -4,-112 274,-112 274,4 -4,4"/>
<!-- less1 -->
<g id="node1" class="node">
<title>less1</title>
<polygon fill="none" stroke="#000000" points="90,-108 36,-108 36,-72 90,-72 90,-108"/>
<text text-anchor="middle" x="63" y="-85.8" font-family="Times,serif" font-size="14.00" fill="#000000">&gt;</text>
</g>
<!-- i1 -->
<g id="node2" class="node">
<title>i1</title>
<ellipse fill="none" stroke="#000000" cx="27" cy="-18" rx="27" ry="18"/>
<text text-anchor="middle" x="27" y="-13.8" font-family="Times,serif" font-size="14.00" fill="#000000">i</text>
</g>
<!-- less1&#45;&gt;i1 -->
<g id="edge1" class="edge">
<title>less1&#45;&gt;i1</title>
<path fill="none" stroke="#000000" d="M53.9157,-71.8314C49.7726,-63.5451 44.7863,-53.5727 40.2374,-44.4748"/>
<polygon fill="#000000" stroke="#000000" points="43.3115,-42.7967 35.7089,-35.4177 37.0505,-45.9273 43.3115,-42.7967"/>
</g>
<!-- arr_size1 -->
<g id="node3" class="node">
<title>arr_size1</title>
<ellipse fill="none" stroke="#000000" cx="99" cy="-18" rx="27" ry="18"/>
<text text-anchor="middle" x="99" y="-13.8" font-family="Times,serif" font-size="14.00" fill="#000000">*</text>
</g>
<!-- less1&#45;&gt;arr_size1 -->
<g id="edge2" class="edge">
<title>less1&#45;&gt;arr_size1</title>
<path fill="none" stroke="#000000" d="M72.0843,-71.8314C76.2274,-63.5451 81.2137,-53.5727 85.7626,-44.4748"/>
<polygon fill="#000000" stroke="#000000" points="88.9495,-45.9273 90.2911,-35.4177 82.6885,-42.7967 88.9495,-45.9273"/>
</g>
<!-- less2 -->
<g id="node4" class="node">
<title>less2</title>
<polygon fill="none" stroke="#000000" points="234,-108 180,-108 180,-72 234,-72 234,-108"/>
<text text-anchor="middle" x="207" y="-85.8" font-family="Times,serif" font-size="14.00" fill="#000000">&gt;</text>
</g>
<!-- i2 -->
<g id="node5" class="node">
<title>i2</title>
<ellipse fill="none" stroke="#000000" cx="171" cy="-18" rx="27" ry="18"/>
<text text-anchor="middle" x="171" y="-13.8" font-family="Times,serif" font-size="14.00" fill="#000000">i</text>
</g>
<!-- less2&#45;&gt;i2 -->
<g id="edge3" class="edge">
<title>less2&#45;&gt;i2</title>
<path fill="none" stroke="#000000" d="M197.9157,-71.8314C193.7726,-63.5451 188.7863,-53.5727 184.2374,-44.4748"/>
<polygon fill="#000000" stroke="#000000" points="187.3115,-42.7967 179.7089,-35.4177 181.0505,-45.9273 187.3115,-42.7967"/>
</g>
<!-- arr_size2 -->
<g id="node6" class="node">
<title>arr_size2</title>
<ellipse fill="none" stroke="#000000" cx="243" cy="-18" rx="27" ry="18"/>
<text text-anchor="middle" x="243" y="-13.8" font-family="Times,serif" font-size="14.00" fill="#000000">*</text>
</g>
<!-- less2&#45;&gt;arr_size2 -->
<g id="edge4" class="edge">
<title>less2&#45;&gt;arr_size2</title>
<path fill="none" stroke="#000000" d="M216.0843,-71.8314C220.2274,-63.5451 225.2137,-53.5727 229.7626,-44.4748"/>
<polygon fill="#000000" stroke="#000000" points="232.9495,-45.9273 234.2911,-35.4177 226.6885,-42.7967 232.9495,-45.9273"/>
</g>
</g>
</svg>
