<?xml version="1.0" encoding="UTF-8" standalone="no"?>
<!DOCTYPE svg PUBLIC "-//W3C//DTD SVG 1.1//EN"
 "http://www.w3.org/Graphics/SVG/1.1/DTD/svg11.dtd">
<!-- Generated by graphviz version 2.40.1 (20161225.0304)
 -->
<!-- Title: dominator Pages: 1 -->
<svg width="139pt" height="545pt"
 viewBox="0.00 0.00 138.65 545.20" xmlns="http://www.w3.org/2000/svg" xmlns:xlink="http://www.w3.org/1999/xlink">
<g id="graph0" class="graph" transform="scale(1 1) rotate(0) translate(4 541.2)">
<title>dominator</title>
<polygon fill="#ffffff" stroke="transparent" points="-4,4 -4,-541.2 134.6473,-541.2 134.6473,4 -4,4"/>
<!-- n0 -->
<g id="node1" class="node">
<title>n0</title>
<path fill="none" stroke="#000000" d="M76.6473,-537.2C76.6473,-537.2 46.6473,-537.2 46.6473,-537.2 40.6473,-537.2 34.6473,-531.2 34.6473,-525.2 34.6473,-525.2 34.6473,-513.2 34.6473,-513.2 34.6473,-507.2 40.6473,-501.2 46.6473,-501.2 46.6473,-501.2 76.6473,-501.2 76.6473,-501.2 82.6473,-501.2 88.6473,-507.2 88.6473,-513.2 88.6473,-513.2 88.6473,-525.2 88.6473,-525.2 88.6473,-531.2 82.6473,-537.2 76.6473,-537.2"/>
<text text-anchor="middle" x="61.6473" y="-515" font-family="Times,serif" font-size="14.00" fill="#000000">...</text>
</g>
<!-- sc1 -->
<g id="node4" class="node">
<title>sc1</title>
<path fill="none" stroke="#000000" d="M111.4423,-448.4C111.4423,-448.4 11.8523,-448.4 11.8523,-448.4 5.8523,-448.4 -.1477,-442.4 -.1477,-436.4 -.1477,-436.4 -.1477,-424.4 -.1477,-424.4 -.1477,-418.4 5.8523,-412.4 11.8523,-412.4 11.8523,-412.4 111.4423,-412.4 111.4423,-412.4 117.4423,-412.4 123.4423,-418.4 123.4423,-424.4 123.4423,-424.4 123.4423,-436.4 123.4423,-436.4 123.4423,-442.4 117.4423,-448.4 111.4423,-448.4"/>
<text text-anchor="middle" x="61.6473" y="-426.2" font-family="Times,serif" font-size="14.00" fill="#000000">sanity/user check 1</text>
</g>
<!-- n0&#45;&gt;sc1 -->
<g id="edge1" class="edge">
<title>n0&#45;&gt;sc1</title>
<path fill="none" stroke="#000000" d="M61.6473,-500.8006C61.6473,-488.6949 61.6473,-472.6076 61.6473,-458.8674"/>
<polygon fill="#000000" stroke="#000000" points="65.1474,-458.472 61.6473,-448.472 58.1474,-458.4721 65.1474,-458.472"/>
<text text-anchor="middle" x="75.6473" y="-470.6" font-family="Times,serif" font-size="14.00" fill="#000000">x100</text>
</g>
<!-- n1 -->
<g id="node2" class="node">
<title>n1</title>
<path fill="none" stroke="#000000" d="M64.6473,-286.6C64.6473,-286.6 34.6473,-286.6 34.6473,-286.6 28.6473,-286.6 22.6473,-280.6 22.6473,-274.6 22.6473,-274.6 22.6473,-262.6 22.6473,-262.6 22.6473,-256.6 28.6473,-250.6 34.6473,-250.6 34.6473,-250.6 64.6473,-250.6 64.6473,-250.6 70.6473,-250.6 76.6473,-256.6 76.6473,-262.6 76.6473,-262.6 76.6473,-274.6 76.6473,-274.6 76.6473,-280.6 70.6473,-286.6 64.6473,-286.6"/>
<text text-anchor="middle" x="49.6473" y="-264.4" font-family="Times,serif" font-size="14.00" fill="#000000">...</text>
</g>
<!-- sc2 -->
<g id="node5" class="node">
<title>sc2</title>
<path fill="none" stroke="#000000" d="M85.7315,-197.8C85.7315,-197.8 13.5631,-197.8 13.5631,-197.8 7.5631,-197.8 1.5631,-191.8 1.5631,-185.8 1.5631,-185.8 1.5631,-173.8 1.5631,-173.8 1.5631,-167.8 7.5631,-161.8 13.5631,-161.8 13.5631,-161.8 85.7315,-161.8 85.7315,-161.8 91.7315,-161.8 97.7315,-167.8 97.7315,-173.8 97.7315,-173.8 97.7315,-185.8 97.7315,-185.8 97.7315,-191.8 91.7315,-197.8 85.7315,-197.8"/>
<text text-anchor="middle" x="49.6473" y="-175.6" font-family="Times,serif" font-size="14.00" fill="#000000">sanity check 2</text>
</g>
<!-- n1&#45;&gt;sc2 -->
<g id="edge3" class="edge">
<title>n1&#45;&gt;sc2</title>
<path fill="none" stroke="#000000" d="M49.6473,-250.2006C49.6473,-238.0949 49.6473,-222.0076 49.6473,-208.2674"/>
<polygon fill="#000000" stroke="#000000" points="53.1474,-207.872 49.6473,-197.872 46.1474,-207.8721 53.1474,-207.872"/>
<text text-anchor="middle" x="63.6473" y="-220" font-family="Times,serif" font-size="14.00" fill="#000000">x100</text>
</g>
<!-- n2 -->
<g id="node3" class="node">
<title>n2</title>
<path fill="none" stroke="#000000" d="M60.6473,-36C60.6473,-36 30.6473,-36 30.6473,-36 24.6473,-36 18.6473,-30 18.6473,-24 18.6473,-24 18.6473,-12 18.6473,-12 18.6473,-6 24.6473,0 30.6473,0 30.6473,0 60.6473,0 60.6473,0 66.6473,0 72.6473,-6 72.6473,-12 72.6473,-12 72.6473,-24 72.6473,-24 72.6473,-30 66.6473,-36 60.6473,-36"/>
<text text-anchor="middle" x="45.6473" y="-13.8" font-family="Times,serif" font-size="14.00" fill="#000000">...</text>
</g>
<!-- sc1&#45;&gt;n1 -->
<g id="edge2" class="edge">
<title>sc1&#45;&gt;n1</title>
<path fill="none" stroke="#000000" d="M56.7033,-412.2304C53.1058,-398.0267 48.5457,-377.7194 46.6473,-359.6 44.9801,-343.6871 46.2114,-339.5941 46.6473,-323.6 46.8818,-314.9967 47.3222,-305.6448 47.7947,-297.134"/>
<polygon fill="#000000" stroke="#000000" points="51.302,-297.112 48.3974,-286.9231 44.3142,-296.6995 51.302,-297.112"/>
<text text-anchor="middle" x="57.1473" y="-337.4" font-family="Times,serif" font-size="14.00" fill="#000000">x98</text>
</g>
<!-- alert1 -->
<g id="node6" class="node">
<title>alert1</title>
<polygon fill="#f08080" stroke="#f08080" points="130.6473,-359.6 76.6473,-359.6 76.6473,-323.6 130.6473,-323.6 130.6473,-359.6"/>
<text text-anchor="middle" x="103.6473" y="-337.4" font-family="Times,serif" font-size="14.00" fill="#000000">Alert</text>
</g>
<!-- sc1&#45;&gt;alert1 -->
<g id="edge5" class="edge">
<title>sc1&#45;&gt;alert1</title>
<path fill="none" stroke="#000000" d="M70.3497,-412.0006C76.2455,-399.5353 84.1379,-382.8484 90.7591,-368.8494"/>
<polygon fill="#000000" stroke="#000000" points="93.988,-370.2084 95.0997,-359.672 87.6601,-367.2154 93.988,-370.2084"/>
<text text-anchor="middle" x="92.6473" y="-381.8" font-family="Times,serif" font-size="14.00" fill="#000000">x2</text>
</g>
<!-- sc2&#45;&gt;n2 -->
<g id="edge4" class="edge">
<title>sc2&#45;&gt;n2</title>
<path fill="none" stroke="#000000" d="M47.3727,-161.7944C45.6874,-147.5067 43.5355,-127.0114 42.6473,-109 41.8592,-93.0194 42.2114,-88.9941 42.6473,-73 42.8818,-64.3967 43.3222,-55.0448 43.7947,-46.534"/>
<polygon fill="#000000" stroke="#000000" points="47.302,-46.512 44.3974,-36.3231 40.3142,-46.0995 47.302,-46.512"/>
<text text-anchor="middle" x="53.1473" y="-86.8" font-family="Times,serif" font-size="14.00" fill="#000000">x98</text>
</g>
<!-- alert2 -->
<g id="node7" class="node">
<title>alert2</title>
<polygon fill="#f08080" stroke="#f08080" points="126.6473,-109 72.6473,-109 72.6473,-73 126.6473,-73 126.6473,-109"/>
<text text-anchor="middle" x="99.6473" y="-86.8" font-family="Times,serif" font-size="14.00" fill="#000000">Alert</text>
</g>
<!-- sc2&#45;&gt;alert2 -->
<g id="edge7" class="edge">
<title>sc2&#45;&gt;alert2</title>
<path fill="none" stroke="#000000" d="M60.0073,-161.4006C67.0936,-148.8155 76.6027,-131.9271 84.5311,-117.8463"/>
<polygon fill="#000000" stroke="#000000" points="87.615,-119.5029 89.4716,-109.072 81.5154,-116.0685 87.615,-119.5029"/>
<text text-anchor="middle" x="85.6473" y="-131.2" font-family="Times,serif" font-size="14.00" fill="#000000">x2</text>
</g>
<!-- alert1&#45;&gt;n1 -->
<g id="edge6" class="edge">
<title>alert1&#45;&gt;n1</title>
<path fill="none" stroke="#000000" d="M90.299,-323.5551C83.8734,-314.8686 76.048,-304.2898 68.9852,-294.742"/>
<polygon fill="#000000" stroke="#000000" points="71.7901,-292.6484 63.0292,-286.6904 66.1624,-296.8113 71.7901,-292.6484"/>
</g>
<!-- alert2&#45;&gt;n2 -->
<g id="edge8" class="edge">
<title>alert2&#45;&gt;n2</title>
<path fill="none" stroke="#000000" d="M86.299,-72.9551C79.8734,-64.2686 72.048,-53.6898 64.9852,-44.142"/>
<polygon fill="#000000" stroke="#000000" points="67.7901,-42.0484 59.0292,-36.0904 62.1624,-46.2113 67.7901,-42.0484"/>
</g>
</g>
</svg>
