<?xml version="1.0" encoding="UTF-8" standalone="no"?>
<!DOCTYPE svg PUBLIC "-//W3C//DTD SVG 1.1//EN"
 "http://www.w3.org/Graphics/SVG/1.1/DTD/svg11.dtd">
<!-- Generated by graphviz version 2.40.1 (20161225.0304)
 -->
<!-- Title: dominator Pages: 1 -->
<svg width="174pt" height="403pt"
 viewBox="0.00 0.00 174.00 402.60" xmlns="http://www.w3.org/2000/svg" xmlns:xlink="http://www.w3.org/1999/xlink">
<g id="graph0" class="graph" transform="scale(1 1) rotate(0) translate(4 398.6)">
<title>dominator</title>
<polygon fill="#ffffff" stroke="transparent" points="-4,4 -4,-398.6 170,-398.6 170,4 -4,4"/>
<!-- n0 -->
<g id="node1" class="node">
<title>n0</title>
<path fill="none" stroke="#000000" d="M70,-394.6C70,-394.6 40,-394.6 40,-394.6 34,-394.6 28,-388.6 28,-382.6 28,-382.6 28,-370.6 28,-370.6 28,-364.6 34,-358.6 40,-358.6 40,-358.6 70,-358.6 70,-358.6 76,-358.6 82,-364.6 82,-370.6 82,-370.6 82,-382.6 82,-382.6 82,-388.6 76,-394.6 70,-394.6"/>
<text text-anchor="middle" x="55" y="-372.4" font-family="Times,serif" font-size="14.00" fill="#000000">...</text>
</g>
<!-- uc1 -->
<g id="node4" class="node">
<title>uc1</title>
<path fill="none" stroke="#000000" d="M85.9636,-305.8C85.9636,-305.8 24.0364,-305.8 24.0364,-305.8 18.0364,-305.8 12.0364,-299.8 12.0364,-293.8 12.0364,-293.8 12.0364,-281.8 12.0364,-281.8 12.0364,-275.8 18.0364,-269.8 24.0364,-269.8 24.0364,-269.8 85.9636,-269.8 85.9636,-269.8 91.9636,-269.8 97.9636,-275.8 97.9636,-281.8 97.9636,-281.8 97.9636,-293.8 97.9636,-293.8 97.9636,-299.8 91.9636,-305.8 85.9636,-305.8"/>
<text text-anchor="middle" x="55" y="-283.6" font-family="Times,serif" font-size="14.00" fill="#000000">user check 1</text>
</g>
<!-- n0&#45;&gt;uc1 -->
<g id="edge1" class="edge">
<title>n0&#45;&gt;uc1</title>
<path fill="none" stroke="#000000" d="M55,-358.2006C55,-346.0949 55,-330.0076 55,-316.2674"/>
<polygon fill="#000000" stroke="#000000" points="58.5001,-315.872 55,-305.872 51.5001,-315.8721 58.5001,-315.872"/>
<text text-anchor="middle" x="69" y="-328" font-family="Times,serif" font-size="14.00" fill="#000000">x100</text>
</g>
<!-- n1 -->
<g id="node2" class="node">
<title>n1</title>
<path fill="none" stroke="#000000" d="M42,-163C42,-163 12,-163 12,-163 6,-163 0,-157 0,-151 0,-151 0,-139 0,-139 0,-133 6,-127 12,-127 12,-127 42,-127 42,-127 48,-127 54,-133 54,-139 54,-139 54,-151 54,-151 54,-157 48,-163 42,-163"/>
<text text-anchor="middle" x="27" y="-140.8" font-family="Times,serif" font-size="14.00" fill="#000000">...</text>
</g>
<!-- n2 -->
<g id="node3" class="node">
<title>n2</title>
<path fill="none" stroke="#000000" d="M88,-36C88,-36 58,-36 58,-36 52,-36 46,-30 46,-24 46,-24 46,-12 46,-12 46,-6 52,0 58,0 58,0 88,0 88,0 94,0 100,-6 100,-12 100,-12 100,-24 100,-24 100,-30 94,-36 88,-36"/>
<text text-anchor="middle" x="73" y="-13.8" font-family="Times,serif" font-size="14.00" fill="#000000">...</text>
</g>
<!-- n1&#45;&gt;n2 -->
<g id="edge7" class="edge">
<title>n1&#45;&gt;n2</title>
<path fill="none" stroke="#000000" d="M32.7244,-126.8482C37.4134,-112.2279 44.3379,-91.1872 51,-73 54.2897,-64.0193 58.0926,-54.3051 61.6018,-45.5756"/>
<polygon fill="#000000" stroke="#000000" points="64.8773,-46.8117 65.3958,-36.2296 58.3914,-44.1787 64.8773,-46.8117"/>
</g>
<!-- uc1&#45;&gt;n1 -->
<g id="edge3" class="edge">
<title>uc1&#45;&gt;n1</title>
<path fill="none" stroke="#000000" d="M51.4538,-269.7143C46.6832,-245.3841 38.15,-201.8648 32.5316,-173.2109"/>
<polygon fill="#000000" stroke="#000000" points="35.9647,-172.5296 30.6059,-163.3899 29.0955,-173.8765 35.9647,-172.5296"/>
<text text-anchor="middle" x="54" y="-239.2" font-family="Times,serif" font-size="14.00" fill="#000000">x2</text>
</g>
<!-- sc2 -->
<g id="node5" class="node">
<title>sc2</title>
<path fill="none" stroke="#000000" d="M139.0842,-217C139.0842,-217 66.9158,-217 66.9158,-217 60.9158,-217 54.9158,-211 54.9158,-205 54.9158,-205 54.9158,-193 54.9158,-193 54.9158,-187 60.9158,-181 66.9158,-181 66.9158,-181 139.0842,-181 139.0842,-181 145.0842,-181 151.0842,-187 151.0842,-193 151.0842,-193 151.0842,-205 151.0842,-205 151.0842,-211 145.0842,-217 139.0842,-217"/>
<text text-anchor="middle" x="103" y="-194.8" font-family="Times,serif" font-size="14.00" fill="#000000">sanity check 2</text>
</g>
<!-- uc1&#45;&gt;sc2 -->
<g id="edge2" class="edge">
<title>uc1&#45;&gt;sc2</title>
<path fill="none" stroke="#000000" d="M64.9456,-269.4006C71.6836,-256.9353 80.7035,-240.2484 88.2706,-226.2494"/>
<polygon fill="#000000" stroke="#000000" points="91.5551,-227.5334 93.2313,-217.072 85.3971,-224.2048 91.5551,-227.5334"/>
<text text-anchor="middle" x="93.5" y="-239.2" font-family="Times,serif" font-size="14.00" fill="#000000">x98</text>
</g>
<!-- sc2&#45;&gt;n2 -->
<g id="edge4" class="edge">
<title>sc2&#45;&gt;n2</title>
<path fill="none" stroke="#000000" d="M98.0328,-180.8686C93.2555,-162.7917 86.1627,-134.1692 82,-109 78.5514,-88.1487 76.2557,-64.3754 74.8464,-46.3576"/>
<polygon fill="#000000" stroke="#000000" points="78.3249,-45.9361 74.0991,-36.2205 71.3439,-46.4508 78.3249,-45.9361"/>
<text text-anchor="middle" x="92.5" y="-86.8" font-family="Times,serif" font-size="14.00" fill="#000000">x98</text>
</g>
<!-- alert2 -->
<g id="node6" class="node">
<title>alert2</title>
<polygon fill="#f08080" stroke="#f08080" points="166,-109 112,-109 112,-73 166,-73 166,-109"/>
<text text-anchor="middle" x="139" y="-86.8" font-family="Times,serif" font-size="14.00" fill="#000000">Alert</text>
</g>
<!-- sc2&#45;&gt;alert2 -->
<g id="edge5" class="edge">
<title>sc2&#45;&gt;alert2</title>
<path fill="none" stroke="#000000" d="M109.1069,-180.6793C114.7784,-163.6649 123.3011,-138.0967 129.797,-118.6091"/>
<polygon fill="#000000" stroke="#000000" points="133.1413,-119.6438 132.9833,-109.0502 126.5005,-117.4302 133.1413,-119.6438"/>
<text text-anchor="middle" x="133" y="-140.8" font-family="Times,serif" font-size="14.00" fill="#000000">x0</text>
</g>
<!-- alert2&#45;&gt;n2 -->
<g id="edge6" class="edge">
<title>alert2&#45;&gt;n2</title>
<path fill="none" stroke="#000000" d="M122.6854,-72.9551C114.6733,-64.0932 104.8804,-53.2616 96.1132,-43.5646"/>
<polygon fill="#000000" stroke="#000000" points="98.6584,-41.1609 89.3557,-36.0904 93.4659,-45.8554 98.6584,-41.1609"/>
</g>
</g>
</svg>
